<svg width="24" height="25" viewBox="0 0 24 25" fill="none" xmlns="http://www.w3.org/2000/svg">
<path d="M10 7.5C10 9.5 9.66667 10.5 7 10.5C4.33333 10.5 4 9.5 4 7.5C4 5.5 4.375 4.5 7 4.5C9.625 4.5 10 5.5 10 7.5Z" stroke="#5E25FF" stroke-width="2" stroke-linecap="round" stroke-linejoin="round"/>
<path d="M10 17.5C10 19.5 9.66667 20.5 7 20.5C4.33333 20.5 4 19.5 4 17.5C4 15.5 4.375 14.5 7 14.5C9.625 14.5 10 15.5 10 17.5Z" stroke="#5E25FF" stroke-width="2" stroke-linecap="round" stroke-linejoin="round"/>
<path d="M20 7.5C20 9.5 19.6667 10.5 17 10.5C14.3333 10.5 14 9.5 14 7.5C14 5.5 14.375 4.5 17 4.5C19.625 4.5 20 5.5 20 7.5Z" stroke="#5E25FF" stroke-width="2" stroke-linecap="round" stroke-linejoin="round"/>
<path d="M20 17.5C20 19.5 19.6667 20.5 17 20.5C14.3333 20.5 14 19.5 14 17.5C14 15.5 14.375 14.5 17 14.5C19.625 14.5 20 15.5 20 17.5Z" stroke="#5E25FF" stroke-width="2" stroke-linecap="round" stroke-linejoin="round"/>
</svg>
