<svg width="38" height="38" viewBox="0 0 38 38" fill="none" xmlns="http://www.w3.org/2000/svg">
<path d="M15.8754 9.26337C23.024 9.26337 18.292 9.26337 24.6606 9.26337C31.0291 9.26337 32.774 9.26337 31.0291 17.9304C29.2601 26.7173 27.5227 27.4071 21.4763 26.7173C11.8092 25.6144 12.4167 25.3085 10.3314 16.173C7.7239 4.75 9.45215 4.75 3.16675 4.75" stroke="#1C2028" stroke-width="2.5" stroke-linecap="round" stroke-linejoin="round"/>
<path d="M13.4584 33.2498C13.8956 33.2498 14.2501 32.8954 14.2501 32.4582C14.2501 32.0209 13.8956 31.6665 13.4584 31.6665C13.0212 31.6665 12.6667 32.0209 12.6667 32.4582C12.6667 32.8954 13.0212 33.2498 13.4584 33.2498Z" fill="#1C2028" stroke="#1C2028" stroke-width="2.5" stroke-linecap="round" stroke-linejoin="round"/>
<path d="M26.1252 33.2498C26.5624 33.2498 26.9168 32.8954 26.9168 32.4582C26.9168 32.0209 26.5624 31.6665 26.1252 31.6665C25.6879 31.6665 25.3335 32.0209 25.3335 32.4582C25.3335 32.8954 25.6879 33.2498 26.1252 33.2498Z" fill="#1C2028" stroke="#1C2028" stroke-width="2.5" stroke-linecap="round" stroke-linejoin="round"/>
</svg>
