<svg width="32" height="32" viewBox="0 0 32 32" fill="none" xmlns="http://www.w3.org/2000/svg">
<path d="M28 16.7059C28 25.3333 25.3333 28 16 28C6.66667 28 4 25.3333 4 16C4 6.66667 6.66667 4 16 4C25.3333 4 28 6.66667 28 16.7059Z" stroke="white" stroke-width="2" stroke-linecap="round" stroke-linejoin="round"/>
<path d="M12 20L20 12" stroke="white" stroke-width="2" stroke-linecap="round" stroke-linejoin="round"/>
<path d="M19.3333 20.0001C19.7015 20.0001 20 19.7016 20 19.3334C20 18.9652 19.7015 18.6667 19.3333 18.6667C18.9651 18.6667 18.6667 18.9652 18.6667 19.3334C18.6667 19.7016 18.9651 20.0001 19.3333 20.0001Z" fill="white" stroke="white" stroke-width="2" stroke-linecap="round" stroke-linejoin="round"/>
<path d="M12.6667 13.3333C13.0349 13.3333 13.3333 13.0349 13.3333 12.6667C13.3333 12.2985 13.0349 12 12.6667 12C12.2985 12 12 12.2985 12 12.6667C12 13.0349 12.2985 13.3333 12.6667 13.3333Z" fill="white" stroke="white" stroke-width="2" stroke-linecap="round" stroke-linejoin="round"/>
</svg>
