<svg width="316" height="96" viewBox="0 0 316 96" fill="none" xmlns="http://www.w3.org/2000/svg">
<path d="M113.404 43.4318H106.608V13.2412H127.214V18.9918H113.404V43.4318Z" fill="#1C2028"/>
<path d="M137.118 28.3147C137.118 29.7959 137.292 31.1319 137.641 32.3227C138.018 33.5135 138.541 34.5445 139.209 35.4158C139.906 36.2581 140.748 36.9115 141.736 37.3762C142.723 37.8409 143.856 38.0733 145.134 38.0733C146.383 38.0733 147.501 37.8409 148.489 37.3762C149.505 36.9115 150.347 36.2581 151.015 35.4158C151.712 34.5445 152.235 33.5135 152.584 32.3227C152.961 31.1319 153.15 29.7959 153.15 28.3147C153.15 26.8335 152.961 25.4975 152.584 24.3067C152.235 23.0869 151.712 22.0559 151.015 21.2136C150.347 20.3423 149.505 19.6743 148.489 19.2096C147.501 18.7449 146.383 18.5126 145.134 18.5126C143.856 18.5126 142.723 18.7595 141.736 19.2532C140.748 19.7179 139.906 20.3859 139.209 21.2572C138.541 22.0994 138.018 23.1305 137.641 24.3503C137.292 25.5411 137.118 26.8626 137.118 28.3147ZM160.164 28.3147C160.164 30.8996 159.772 33.1795 158.988 35.1544C158.233 37.1003 157.187 38.7413 155.851 40.0773C154.515 41.3842 152.918 42.3717 151.059 43.0397C149.229 43.7077 147.254 44.0417 145.134 44.0417C143.072 44.0417 141.126 43.7077 139.296 43.0397C137.467 42.3717 135.869 41.3842 134.504 40.0773C133.139 38.7413 132.065 37.1003 131.28 35.1544C130.496 33.1795 130.104 30.8996 130.104 28.3147C130.104 25.7299 130.511 23.4645 131.324 21.5186C132.137 19.5436 133.226 17.8882 134.591 16.5522C135.985 15.2162 137.583 14.2142 139.383 13.5462C141.213 12.8782 143.13 12.5442 145.134 12.5442C147.196 12.5442 149.142 12.8782 150.972 13.5462C152.801 14.2142 154.399 15.2162 155.764 16.5522C157.129 17.8882 158.204 19.5436 158.988 21.5186C159.772 23.4645 160.164 25.7299 160.164 28.3147Z" fill="#1C2028"/>
<path d="M187.2 13.2412V19.0354H178.095V43.4318H171.299V19.0354H162.194V13.2412H187.2Z" fill="#1C2028"/>
<path d="M196.254 28.3147C196.254 29.7959 196.428 31.1319 196.777 32.3227C197.154 33.5135 197.677 34.5445 198.345 35.4158C199.042 36.2581 199.885 36.9115 200.872 37.3762C201.859 37.8409 202.992 38.0733 204.27 38.0733C205.519 38.0733 206.637 37.8409 207.625 37.3762C208.641 36.9115 209.483 36.2581 210.151 35.4158C210.848 34.5445 211.371 33.5135 211.72 32.3227C212.097 31.1319 212.286 29.7959 212.286 28.3147C212.286 26.8335 212.097 25.4975 211.72 24.3067C211.371 23.0869 210.848 22.0559 210.151 21.2136C209.483 20.3423 208.641 19.6743 207.625 19.2096C206.637 18.7449 205.519 18.5126 204.27 18.5126C202.992 18.5126 201.859 18.7595 200.872 19.2532C199.885 19.7179 199.042 20.3859 198.345 21.2572C197.677 22.0994 197.154 23.1305 196.777 24.3503C196.428 25.5411 196.254 26.8626 196.254 28.3147ZM219.3 28.3147C219.3 30.8996 218.908 33.1795 218.124 35.1544C217.369 37.1003 216.323 38.7413 214.987 40.0773C213.651 41.3842 212.054 42.3717 210.195 43.0397C208.365 43.7077 206.39 44.0417 204.27 44.0417C202.208 44.0417 200.262 43.7077 198.432 43.0397C196.603 42.3717 195.005 41.3842 193.64 40.0773C192.275 38.7413 191.201 37.1003 190.416 35.1544C189.632 33.1795 189.24 30.8996 189.24 28.3147C189.24 25.7299 189.647 23.4645 190.46 21.5186C191.273 19.5436 192.362 17.8882 193.727 16.5522C195.121 15.2162 196.719 14.2142 198.52 13.5462C200.349 12.8782 202.266 12.5442 204.27 12.5442C206.332 12.5442 208.278 12.8782 210.108 13.5462C211.938 14.2142 213.535 15.2162 214.9 16.5522C216.265 17.8882 217.34 19.5436 218.124 21.5186C218.908 23.4645 219.3 25.7299 219.3 28.3147Z" fill="#1C2028"/>
<path d="M235.029 43.8239C233.373 43.8239 231.718 43.7658 230.062 43.6496C228.436 43.5625 226.737 43.3301 224.965 42.9526V13.6769C226.359 13.4155 227.884 13.2267 229.539 13.1105C231.195 12.9653 232.734 12.8927 234.157 12.8927C236.074 12.8927 237.831 13.0379 239.429 13.3284C241.055 13.5897 242.449 14.0544 243.611 14.7224C244.773 15.3904 245.673 16.2763 246.312 17.3799C246.98 18.4545 247.314 19.7905 247.314 21.3879C247.314 23.7985 246.152 25.7008 243.829 27.0949C245.746 27.821 247.053 28.8085 247.75 30.0573C248.447 31.3062 248.795 32.7148 248.795 34.2831C248.795 37.4489 247.633 39.8304 245.31 41.4278C243.016 43.0252 239.588 43.8239 235.029 43.8239ZM231.587 30.2751V38.0733C232.081 38.1314 232.618 38.1749 233.199 38.204C233.78 38.233 234.419 38.2475 235.116 38.2475C237.149 38.2475 238.79 37.9571 240.039 37.3762C241.288 36.7954 241.912 35.7208 241.912 34.1524C241.912 32.7584 241.389 31.7709 240.344 31.19C239.298 30.5801 237.802 30.2751 235.856 30.2751H231.587ZM231.587 25.0909H234.898C236.989 25.0909 238.485 24.8295 239.385 24.3067C240.286 23.7549 240.736 22.8836 240.736 21.6928C240.736 20.473 240.271 19.6162 239.342 19.1225C238.412 18.6288 237.047 18.3819 235.247 18.3819C234.666 18.3819 234.041 18.3964 233.373 18.4255C232.705 18.4255 232.11 18.4545 231.587 18.5126V25.0909Z" fill="#1C2028"/>
<path d="M277.063 33.5425C277.063 35.227 276.729 36.7082 276.061 37.9862C275.423 39.2641 274.493 40.3387 273.273 41.21C272.083 42.0813 270.616 42.7347 268.873 43.1704C267.16 43.606 265.243 43.8239 263.123 43.8239C261.903 43.8239 260.509 43.7367 258.94 43.5625C257.401 43.3882 255.833 43.1123 254.235 42.7347V13.2412H261.032V23.2612C261.351 23.2321 261.641 23.2176 261.903 23.2176C262.193 23.2176 262.498 23.2176 262.818 23.2176C267.552 23.2176 271.11 24.0599 273.491 25.7444C275.873 27.4289 277.063 30.0283 277.063 33.5425ZM280.854 13.2412H287.65V43.4318H280.854V13.2412ZM262.382 28.9682C262.237 28.9682 262.034 28.9682 261.772 28.9682C261.511 28.9682 261.264 28.9827 261.032 29.0118V38.0297C261.351 38.0588 261.714 38.0733 262.121 38.0733C262.527 38.0733 263.021 38.0733 263.602 38.0733C264.502 38.0733 265.344 38.0007 266.129 37.8555C266.913 37.7102 267.595 37.4634 268.176 37.1149C268.786 36.7663 269.251 36.3016 269.57 35.7208C269.919 35.1399 270.093 34.4138 270.093 33.5425C270.093 31.7709 269.425 30.5656 268.089 29.9266C266.782 29.2877 264.88 28.9682 262.382 28.9682Z" fill="#1C2028"/>
<path d="M294.61 43.4318V13.2412H314.998V18.9482H301.406V24.8731H313.473V30.4494H301.406V37.7248H316V43.4318H294.61Z" fill="#1C2028"/>
<path d="M124.426 86.4019C123.816 85.4145 123.09 84.3544 122.248 83.2217C121.435 82.06 120.534 80.9128 119.547 79.7801C118.588 78.6183 117.586 77.5147 116.541 76.4691C115.495 75.3945 114.45 74.4506 113.404 73.6374V86.4019H106.608V56.2114H113.404V67.6254C115.176 65.7667 116.947 63.8353 118.719 61.8313C120.52 59.7983 122.19 57.925 123.729 56.2114H131.788C129.726 58.651 127.65 61.0036 125.559 63.2689C123.497 65.5343 121.318 67.8142 119.024 70.1086C121.435 72.1126 123.758 74.4942 125.994 77.2533C128.26 80.0124 130.423 83.062 132.486 86.4019H124.426Z" fill="#1C2028"/>
<path d="M152.975 77.5583C152.132 79.4751 151.247 81.058 150.317 82.3068C149.388 83.5267 148.429 84.4851 147.442 85.1821C146.454 85.8792 145.452 86.3584 144.436 86.6198C143.419 86.8812 142.388 87.0119 141.343 87.0119C140.355 87.0119 139.324 86.9102 138.25 86.7069C137.204 86.5326 136.217 86.2712 135.287 85.9227L136.507 80.4771C137.93 80.9999 139.339 81.2613 140.733 81.2613C141.633 81.2613 142.49 81.058 143.303 80.6514C144.146 80.2448 144.944 79.3735 145.699 78.0375C144.509 76.1787 143.361 74.2764 142.258 72.3305C141.183 70.3555 140.152 68.4241 139.165 66.5363C138.206 64.6194 137.306 62.7897 136.464 61.0471C135.65 59.2755 134.924 57.6636 134.285 56.2114H141.822C142.287 57.3441 142.795 58.5639 143.347 59.8709C143.928 61.1488 144.538 62.4848 145.177 63.8788C145.816 65.2439 146.454 66.6234 147.093 68.0175C147.761 69.3826 148.4 70.7185 149.01 72.0255C149.94 69.4697 150.825 66.8558 151.668 64.1838C152.51 61.5118 153.323 58.8543 154.107 56.2114H161.383C160.628 58.4477 159.887 60.5389 159.161 62.4848C158.435 64.4307 157.723 66.2749 157.026 68.0175C156.329 69.7601 155.632 71.4156 154.935 72.9839C154.267 74.5523 153.614 76.077 152.975 77.5583Z" fill="#1C2028"/>
<path d="M174.38 55.8629C178.882 55.8629 182.338 56.6616 184.749 58.259C187.159 59.8273 188.364 62.4122 188.364 66.0135C188.364 69.6439 187.145 72.2724 184.705 73.8988C182.265 75.4962 178.78 76.2949 174.249 76.2949H172.115V86.4019H165.319V56.647C166.8 56.3566 168.368 56.1533 170.024 56.0371C171.679 55.921 173.131 55.8629 174.38 55.8629ZM174.816 61.657C174.322 61.657 173.828 61.6715 173.335 61.7006C172.87 61.7296 172.463 61.7587 172.115 61.7877V70.5007H174.249C176.602 70.5007 178.374 70.1812 179.564 69.5423C180.755 68.9033 181.35 67.7126 181.35 65.97C181.35 65.1277 181.191 64.4307 180.871 63.8788C180.581 63.327 180.145 62.8914 179.564 62.5719C179.012 62.2234 178.33 61.991 177.517 61.8749C176.704 61.7296 175.803 61.657 174.816 61.657Z" fill="#1C2028"/>
<path d="M207.122 87.0119C202.213 87.0119 198.467 85.6468 195.882 82.9167C193.326 80.1867 192.048 76.3094 192.048 71.2849C192.048 68.7872 192.44 66.5654 193.224 64.6194C194.008 62.6445 195.083 60.989 196.448 59.653C197.813 58.288 199.44 57.257 201.327 56.5599C203.215 55.8629 205.263 55.5144 207.47 55.5144C208.748 55.5144 209.91 55.616 210.955 55.8193C212.001 55.9936 212.916 56.2114 213.7 56.4728C214.484 56.7051 215.138 56.952 215.66 57.2134C216.183 57.4748 216.561 57.6781 216.793 57.8233L214.833 63.3125C213.903 62.8188 212.814 62.3976 211.565 62.0491C210.345 61.7006 208.951 61.5263 207.383 61.5263C206.337 61.5263 205.306 61.7006 204.29 62.0491C203.302 62.3976 202.417 62.964 201.632 63.7481C200.877 64.5033 200.267 65.4907 199.803 66.7106C199.338 67.9304 199.106 69.4116 199.106 71.1542C199.106 72.5483 199.251 73.8552 199.541 75.075C199.861 76.2658 200.354 77.2969 201.022 78.1682C201.72 79.0395 202.62 79.7365 203.724 80.2593C204.827 80.753 206.163 80.9999 207.731 80.9999C208.719 80.9999 209.605 80.9418 210.389 80.8256C211.173 80.7095 211.87 80.5788 212.48 80.4335C213.09 80.2593 213.627 80.0705 214.092 79.8672C214.557 79.6639 214.978 79.4751 215.355 79.3009L217.229 84.7465C216.27 85.3273 214.92 85.8501 213.177 86.3148C211.435 86.7795 209.416 87.0119 207.122 87.0119Z" fill="#1C2028"/>
<path d="M244.432 76.5127C244.432 78.1972 244.098 79.6784 243.43 80.9563C242.791 82.2342 241.862 83.3088 240.642 84.1801C239.451 85.0514 237.985 85.7049 236.242 86.1406C234.528 86.5762 232.612 86.794 230.491 86.794C229.272 86.794 227.878 86.7069 226.309 86.5326C224.77 86.3584 223.202 86.0825 221.604 85.7049V56.2114H228.4V66.2313C228.72 66.2023 229.01 66.1878 229.272 66.1878C229.562 66.1878 229.867 66.1878 230.187 66.1878C234.921 66.1878 238.478 67.03 240.86 68.7146C243.241 70.3991 244.432 72.9985 244.432 76.5127ZM248.222 56.2114H255.019V86.4019H248.222V56.2114ZM229.751 71.9384C229.606 71.9384 229.402 71.9384 229.141 71.9384C228.88 71.9384 228.633 71.9529 228.4 71.9819V80.9999C228.72 81.0289 229.083 81.0435 229.489 81.0435C229.896 81.0435 230.39 81.0435 230.971 81.0435C231.871 81.0435 232.713 80.9708 233.497 80.8256C234.282 80.6804 234.964 80.4335 235.545 80.085C236.155 79.7365 236.62 79.2718 236.939 78.6909C237.288 78.1101 237.462 77.384 237.462 76.5127C237.462 74.7411 236.794 73.5358 235.458 72.8968C234.151 72.2578 232.249 71.9384 229.751 71.9384Z" fill="#1C2028"/>
<path d="M61.4082 82.4384C61.4081 83.0406 61.2399 83.6309 60.9227 84.1427C60.6054 84.6546 60.1516 85.0678 59.6123 85.3358C59.0729 85.6038 58.4695 85.716 57.8699 85.6598C57.2703 85.6035 56.6983 85.3811 56.2183 85.0175C51.1882 81.2171 45.0453 75.9719 41.9922 75.9719C38.5843 75.9719 32.7961 81.2171 27.7661 85.0175C27.286 85.3811 26.714 85.6035 26.1144 85.6598C25.5148 85.716 24.9114 85.6038 24.3721 85.3358C23.8328 85.0678 23.3789 84.6546 23.0617 84.1427C22.7444 83.6309 22.5763 83.0406 22.5762 82.4384V40.3759C22.5762 27.4319 25.8122 27.4319 41.9922 27.4319C58.1722 27.4319 61.4082 27.4319 61.4082 40.3759V82.4384Z" stroke="#5E25FF" stroke-width="4.854" stroke-linecap="round" stroke-linejoin="round"/>
<path d="M71.1162 37.1399V75.9719" stroke="#5E25FF" stroke-width="4.854" stroke-linecap="round" stroke-linejoin="round"/>
<path d="M80.8241 43.6118V69.4998" stroke="#5E25FF" stroke-width="4.854" stroke-linecap="round" stroke-linejoin="round"/>
<mask id="path-5-outside-1_386_5865" maskUnits="userSpaceOnUse" x="-2.6539" y="-2.74128" width="63.2065" height="54.8921" fill="black">
<rect fill="white" x="-2.6539" y="-2.74128" width="63.2065" height="54.8921"/>
<path d="M23.4539 9.6904C23.6787 9.65384 24.5304 9.55518 24.9966 9.51171C25.115 9.50066 25.2385 9.48883 25.271 9.48543C25.3034 9.48199 25.4038 9.47288 25.4939 9.4651L25.8957 9.42998L25.9038 9.42925C26.6103 9.36687 26.614 9.36653 26.8418 9.34944C26.889 9.34589 26.9357 9.34219 26.9743 9.33897C27.02 9.33516 27.0545 9.33201 27.0654 9.33059C27.1025 9.32573 27.2471 9.31423 27.5956 9.28832C27.6545 9.28395 27.736 9.27769 27.8166 9.27139L27.9992 9.25699C28.266 9.23544 28.8202 9.19364 29.5329 9.14133L30.4015 9.07734C30.4633 9.07278 30.632 9.061 30.7765 9.05112C31.0619 9.03161 31.1485 9.02548 31.4887 9.00064C31.6123 8.9916 31.7542 8.98209 31.8041 8.9795C31.8287 8.97825 31.8689 8.97574 31.9142 8.97273C31.9611 8.96962 32.0135 8.96595 32.0595 8.96254C32.1089 8.95885 32.1604 8.95519 32.2018 8.9524C32.2364 8.95009 32.2639 8.94836 32.2772 8.94769C32.3064 8.94631 32.4213 8.93867 32.5326 8.93065C32.621 8.92427 32.7224 8.91746 32.7853 8.91357L32.8256 8.91123C32.915 8.90641 33.3359 8.87848 33.9224 8.83852C34.0875 8.82726 34.2634 8.81589 34.3133 8.8133C34.3635 8.81066 34.4121 8.80783 34.5158 8.80118C34.5868 8.79666 34.6838 8.79032 34.8249 8.78104C34.8993 8.77616 34.9839 8.77084 35.013 8.76924C35.0421 8.76764 35.1284 8.76223 35.2049 8.75723C35.2813 8.75224 35.4033 8.74461 35.4758 8.74028L35.5838 8.73371L35.7882 8.72101C35.8875 8.71475 36.0095 8.70742 36.0594 8.70471C36.1092 8.70199 36.2109 8.69581 36.2853 8.69097C36.3597 8.68613 36.5002 8.67737 36.5976 8.67157C36.695 8.66572 36.8542 8.65596 36.9515 8.64981C37.0487 8.64366 37.1691 8.63648 37.219 8.63389C37.3021 8.62954 37.7129 8.60559 38.0257 8.58689C38.0961 8.58267 38.2839 8.57194 38.4429 8.56302C38.5301 8.55815 38.6368 8.55206 38.7344 8.54644L38.9406 8.53443C39.0554 8.52764 39.2988 8.51375 39.4815 8.50356C39.6641 8.49341 39.9766 8.47583 40.1758 8.46458C40.2717 8.45914 40.3703 8.45373 40.4533 8.44932C40.5427 8.44457 40.614 8.44097 40.6443 8.43973C40.7028 8.43735 41.0359 8.41938 41.3846 8.3998C41.7333 8.38023 42.0358 8.36387 42.0569 8.36342C42.0954 8.36259 43.2412 8.30593 43.4458 8.29475L43.6648 8.28278C43.7737 8.27685 44.2926 8.25193 44.6988 8.2332C47.5007 8.10371 48.3483 8.24661 48.3227 8.84426C48.2992 9.39265 47.3184 10.5051 45.1682 12.4221C45.1048 12.4786 45.0087 12.5647 44.9545 12.6135C44.9004 12.6622 44.7942 12.7567 44.7185 12.8235C44.6428 12.8902 44.5366 12.9847 44.4825 13.0335C44.4284 13.0823 44.3045 13.1913 44.2071 13.2757C44.1098 13.3602 44.0006 13.4558 43.9645 13.4881C43.8821 13.5619 43.6867 13.7328 43.4569 13.9319C43.4127 13.9702 43.3598 14.0162 43.3084 14.0609C43.2468 14.1146 43.1874 14.1665 43.1477 14.2012C43.0749 14.265 42.9876 14.3401 42.9536 14.368C42.9197 14.396 42.8449 14.4604 42.7875 14.5113C42.7556 14.5396 42.7103 14.5793 42.6651 14.6187C42.629 14.6501 42.593 14.6813 42.564 14.7064L42.0792 15.124C42.0091 15.1845 41.8869 15.2896 41.8076 15.3577C41.5578 15.5721 41.2478 15.8389 41.0899 15.9752C41.0276 16.0292 40.8589 16.1734 40.7153 16.2958C40.5716 16.4182 40.4043 16.5616 40.3436 16.6145C40.2829 16.6675 40.1682 16.7662 40.0887 16.834C39.9325 16.9674 39.7977 17.0828 39.5893 17.2618L39.0682 17.7097C38.9951 17.7727 38.8852 17.8669 38.8241 17.919C38.6426 18.0739 38.4662 18.2251 38.3248 18.3469C38.2516 18.4099 38.1418 18.5042 38.0808 18.5564L37.3368 19.1925C37.2175 19.2945 37.131 19.3682 36.8366 19.6185C36.757 19.6861 36.6572 19.7717 36.6146 19.8087C36.5721 19.8457 36.4207 19.9744 36.2782 20.0946C36.1984 20.1619 36.0894 20.2539 35.9834 20.3436L35.7546 20.5372C35.6091 20.6603 35.4448 20.7988 35.3894 20.8447C35.3339 20.8907 35.2232 20.983 35.1433 21.0498C35.0634 21.1166 34.9401 21.2193 34.8693 21.2781L34.6565 21.4545C34.6103 21.4928 34.4953 21.5872 34.401 21.6644C34.3067 21.7414 34.1499 21.8698 34.0526 21.9495C33.9553 22.0293 33.8373 22.1247 33.7904 22.1615C33.7435 22.1982 33.5237 22.3714 33.3021 22.5462C32.8424 22.9089 32.6904 23.0267 32.4965 23.1702C32.1925 23.3952 31.8899 23.614 31.7837 23.6853C31.722 23.7268 31.6482 23.7785 31.6199 23.8001C31.1233 24.1785 29.934 24.8467 29.3143 25.0954C28.0882 25.5875 26.9832 25.7951 24.6974 25.9626L24.4354 25.9819C24.2876 25.9929 23.8727 26.0211 23.5721 26.0405C23.4398 26.0491 23.2337 26.063 23.1141 26.0714C22.8962 26.0868 22.6719 26.1012 22.5727 26.1062C22.5436 26.1076 22.4287 26.1155 22.3175 26.1236C22.2063 26.1317 22.0914 26.1395 22.0623 26.141C22.0109 26.1436 21.9378 26.1482 21.5581 26.1725C21.4589 26.1789 21.3539 26.1854 21.3248 26.1869C21.2957 26.1885 21.2109 26.1936 21.1365 26.1984L20.4702 26.2392C20.2647 26.2518 19.7374 26.2817 19.6818 26.284C19.6609 26.2848 19.521 26.2913 19.371 26.2984C19.1359 26.3094 18.9167 26.3188 18.5586 26.3331C17.4135 26.3787 16.7549 26.3167 16.6809 26.1564C16.6216 26.0278 16.7137 25.9063 17.2682 25.3821C17.4017 25.256 17.7557 24.921 18.0551 24.6377C18.3544 24.3543 18.8081 23.9255 19.0632 23.6847L20.2819 22.5339C20.6972 22.1418 21.2967 21.576 21.6142 21.2766C22.4862 20.4542 23.2965 19.6828 23.5399 19.4432C23.5808 19.4029 23.6271 19.3578 23.6644 19.3218C23.6886 19.2984 23.709 19.2789 23.7218 19.2669C23.7545 19.2362 23.8406 19.151 23.9132 19.0776C23.9858 19.0041 24.0647 18.9259 24.0885 18.9038C24.1383 18.8578 24.4952 18.5018 24.5498 18.4437C24.5698 18.4224 24.6287 18.3613 24.6806 18.3077C25.3027 17.6674 25.674 17.2584 26.0152 16.8375C26.9999 15.623 26.9687 15.1346 25.9108 15.2022C25.6405 15.2195 25.3158 15.3623 24.9805 15.6115C24.938 15.6431 24.8529 15.7034 24.7915 15.7457C24.6052 15.8736 23.9085 16.419 23.6596 16.6317L23.5867 16.6938C23.5269 16.7446 23.4544 16.806 23.3981 16.8535C23.3153 16.9233 23.1878 17.0321 23.1147 17.0952L22.849 17.3248C22.776 17.388 22.6867 17.4664 22.6507 17.499C22.6146 17.5316 22.5158 17.6194 22.431 17.6941C22.3462 17.7687 22.2401 17.8633 22.1951 17.9044C22.1502 17.9454 22.0103 18.0726 21.8842 18.1869C21.5826 18.4604 21.552 18.4888 20.9084 19.0926C20.3161 19.6483 20.2198 19.7398 19.9071 20.0434C19.7954 20.1519 19.6771 20.2657 19.6444 20.2961C19.6116 20.3266 19.5298 20.406 19.4625 20.4725C19.3953 20.5391 19.261 20.6709 19.1641 20.7655C19.0672 20.8601 18.9285 20.9973 18.8558 21.0705C18.7831 21.1436 18.7113 21.2146 18.6963 21.2282C18.6813 21.2418 18.6214 21.3007 18.5632 21.3593C18.505 21.4178 18.3741 21.5492 18.2721 21.6512C18.1701 21.7533 18.0703 21.8541 18.0504 21.8754C18.0304 21.8966 17.9617 21.9669 17.8979 22.0315C17.834 22.0961 17.7463 22.1854 17.703 22.23C17.6597 22.2746 17.5792 22.357 17.5242 22.4131C17.4692 22.4692 17.396 22.5446 17.3616 22.5807L17.0949 22.8586C16.528 23.449 16.003 24.0117 15.5977 24.463L15.3369 24.7535C15.2579 24.8414 15.1537 24.9595 15.1182 25.0011L14.8245 25.3444C14.7234 25.4627 14.6311 25.5712 14.5787 25.6336C14.553 25.664 14.5369 25.6834 14.5338 25.6877C14.5244 25.7006 14.4149 25.8377 14.2904 25.9924C13.9564 26.4075 13.7517 26.6948 13.5338 27.0542C13.1846 27.6303 13.0304 28.9351 13.1534 30.2743C13.2308 31.1168 13.4902 32.0248 13.7833 32.4789C13.9541 32.7435 14.0537 32.8339 14.3087 32.9554C15.4239 33.487 16.0394 34.8071 15.6683 35.8714C15.4536 36.4872 15.4873 36.8135 15.8037 37.18C16.6611 38.1732 17.7014 40.7027 18.0947 42.7508C18.2795 43.7128 18.3483 44.9635 18.2563 45.688C18.0358 47.4255 17.1591 48.1195 14.9755 48.2851C12.6954 48.4581 12.3161 48.1656 12.6745 46.511C12.6982 46.4012 12.722 46.2912 12.7272 46.2664C12.7649 46.0902 12.9414 45.4269 13.0629 45.0055C13.4447 43.6812 13.6615 42.0151 13.5971 40.9016C13.5013 39.2455 13.0019 38.1254 12.0106 37.3435C10.8802 36.4519 10.3177 35.1045 10.7693 34.3703C10.8731 34.2015 10.8912 34.0834 10.8916 33.5707C10.8919 33.1334 10.8596 32.3457 10.8208 31.8421L10.8103 31.7032L10.8029 31.6026C10.7926 31.4613 10.7788 31.2945 10.7544 31.0172C10.7224 30.6548 10.7161 30.5859 10.7089 30.5195C10.7049 30.483 10.6861 30.2966 10.6671 30.1052C10.3582 26.9979 10.24 26.8446 8.29721 27.0311C8.10965 27.0491 7.8596 27.0735 7.74156 27.0853C7.34545 27.1249 7.13456 27.1386 6.71171 27.1521C5.30899 27.1968 4.37573 26.8561 4.38383 26.3024C4.38815 26.0062 4.46676 25.9075 5.3547 25.0834C5.49184 24.9561 5.63809 24.82 5.67968 24.781C5.69973 24.7621 5.74198 24.7232 5.79447 24.6749C5.85083 24.6232 5.91901 24.5607 5.98419 24.5013C6.11009 24.3865 6.26447 24.2454 6.32728 24.1877C6.39009 24.13 6.49345 24.0369 6.55698 23.9808C6.6205 23.9246 6.72394 23.8317 6.78683 23.7742C6.89985 23.6708 6.99718 23.5831 7.31729 23.2962C7.68879 22.9633 7.73531 22.9219 7.77275 22.8906C7.79427 22.8727 7.85605 22.8178 7.91003 22.7687C7.96403 22.7196 8.07751 22.6182 8.16219 22.5433C8.2121 22.4992 8.26949 22.4483 8.31747 22.4057L8.39836 22.3336C8.44355 22.2931 8.54255 22.2057 8.61838 22.1393C8.69421 22.0729 8.8005 21.9786 8.85459 21.9297C8.88174 21.9052 8.92203 21.8691 8.96503 21.831C9.0077 21.7931 9.05301 21.7531 9.09077 21.7201C9.1666 21.6537 9.26559 21.5662 9.31075 21.5256C9.35595 21.4851 9.45242 21.3997 9.52518 21.3359C9.59796 21.2722 9.80868 21.0871 9.99349 20.9246C10.1783 20.7622 10.3991 20.5686 10.4841 20.4946C10.5692 20.4205 10.6831 20.3201 10.7374 20.2715C10.8379 20.1814 10.96 20.0745 11.206 19.8609C11.282 19.7949 11.3811 19.7077 11.4262 19.6671C11.4714 19.6265 11.5806 19.5309 11.6689 19.4546C11.7572 19.3783 11.8765 19.2745 11.934 19.2239C11.963 19.1984 12.0032 19.1632 12.0446 19.1271C12.0853 19.0916 12.1271 19.0552 12.1604 19.0265C12.2273 18.9686 12.3292 18.8799 12.3869 18.8294C12.4835 18.7447 12.5857 18.6556 12.8782 18.4008C13.1267 18.1843 13.2164 18.1065 13.3536 17.9881C13.4327 17.9197 13.5447 17.8227 13.6024 17.7724L13.8399 17.5655C13.9128 17.502 14.0272 17.4026 14.0942 17.3448L14.3432 17.1293C14.4131 17.0686 14.5239 16.9727 14.5894 16.9162L14.8274 16.7105C14.8929 16.654 15.0037 16.5581 15.0736 16.4974C15.1436 16.4368 15.2544 16.341 15.32 16.2846L15.8047 15.867C15.8748 15.8066 15.9969 15.7014 16.0762 15.6333C16.2946 15.446 16.6086 15.1758 16.794 15.0159C16.8564 14.962 16.9827 14.8544 17.0746 14.7767C17.1265 14.7328 17.1825 14.685 17.2279 14.6459C17.263 14.6158 17.2917 14.5908 17.3075 14.5767C17.3437 14.5444 17.4586 14.4462 17.5629 14.3584C17.6672 14.2706 17.7821 14.1723 17.8183 14.14C17.8545 14.1076 17.9518 14.0242 18.0347 13.9545C18.1175 13.8849 18.2352 13.7851 18.2962 13.7328C18.3573 13.6805 18.4824 13.5741 18.5743 13.4964L18.7189 13.3736C18.765 13.3344 18.8057 13.2996 18.83 13.2787C18.8787 13.2367 18.9864 13.1454 19.0692 13.0757C19.128 13.0262 19.2043 12.9615 19.2656 12.9095L19.3307 12.8539C19.3918 12.8016 19.5096 12.7019 19.5924 12.6324C19.6753 12.5628 19.7858 12.47 19.8379 12.4261C20.3784 11.9707 20.849 11.5769 21.1504 11.3275C21.2305 11.2611 21.354 11.1588 21.4248 11.1C21.6284 10.931 21.9854 10.6405 22.2072 10.4633C22.3193 10.3739 22.4597 10.2614 22.5193 10.2135C22.5789 10.1655 22.7126 10.0628 22.8166 9.98523C22.9205 9.90769 23.0158 9.83629 23.0283 9.82663C23.1084 9.76495 23.2246 9.72775 23.4539 9.6904Z"/>
<path d="M15.8567 28.9348C16.1975 28.8181 16.7912 28.7197 17.4536 28.6701C17.5564 28.6623 17.6671 28.653 17.6995 28.6493C17.7318 28.6456 17.8396 28.6376 17.939 28.6315C18.0383 28.6253 18.1531 28.6173 18.1941 28.6138C18.235 28.6103 18.367 28.6018 18.4873 28.5949L18.9549 28.5681C19.3999 28.5424 19.926 28.5137 20.0348 28.509C20.0932 28.5065 20.3414 28.4931 20.5862 28.4793C21.3477 28.4363 22.1286 28.3936 22.2476 28.3885C22.3102 28.3858 22.3991 28.3821 22.4451 28.3803C22.4911 28.3785 22.661 28.3691 22.8226 28.3595C22.9842 28.3498 23.1475 28.3411 23.1854 28.3402C23.2552 28.3385 23.3714 28.3323 24.3038 28.2809C25.173 28.233 25.2256 28.2299 25.6308 28.2036C26.6035 28.1403 27.3984 28.0683 27.9866 27.9902L28.2492 27.9555C29.6865 27.7664 31.0503 27.2524 32.0104 26.5379C32.0557 26.5043 32.1293 26.4523 32.1739 26.4224C32.3528 26.3028 32.7339 26.0086 33.1086 25.7011C33.2383 25.5946 33.3751 25.4833 33.4125 25.4537C33.4499 25.424 33.5203 25.3651 33.5688 25.3226C33.5962 25.2986 33.6425 25.2589 33.6925 25.2164C33.731 25.1837 33.7717 25.1492 33.8078 25.119C33.8907 25.0495 34.0057 24.9515 34.0634 24.9012C34.1211 24.8509 34.2331 24.7538 34.3123 24.6855C34.3915 24.6172 34.5033 24.5198 34.5609 24.4692C34.6473 24.3931 34.7777 24.279 34.9189 24.1559L35.0464 24.0449C35.1102 23.9894 35.2121 23.9005 35.2728 23.8474L36.2111 23.0286C36.2719 22.9758 36.3812 22.8804 36.4541 22.8168C36.6517 22.6443 36.7911 22.5242 37.0802 22.2777C37.2238 22.1552 37.3911 22.012 37.452 21.9593C37.5129 21.9067 37.6278 21.8084 37.7073 21.7407C37.7868 21.6731 37.9019 21.5751 37.963 21.5229C38.024 21.4708 38.1418 21.3711 38.2246 21.3014C38.3074 21.2317 38.4076 21.1467 38.4472 21.1125C38.4689 21.0937 38.503 21.0648 38.539 21.0345C38.5684 21.0097 38.5992 20.9839 38.6255 20.9621C38.684 20.9136 38.7972 20.8191 38.8771 20.7522C38.9569 20.6853 39.0777 20.5847 39.1455 20.5285C39.2133 20.4724 39.3367 20.3699 39.4197 20.3006C39.5662 20.1784 39.7427 20.0328 39.9972 19.824C40.1028 19.7373 40.8835 19.1099 41.2397 18.8253C41.3436 18.7424 41.4701 18.6445 41.8274 18.3708C42.3903 17.9395 42.6667 17.7728 42.7411 17.8196C43.013 17.9909 43.8152 19.5789 44.4489 21.2006C44.494 21.316 44.5754 21.5223 44.6298 21.6591C44.9788 22.5368 45.363 23.7491 45.4483 24.2417C45.6213 25.2408 45.3358 26.2685 44.541 27.5076C44.3763 27.7643 43.8288 28.4721 43.6292 28.6862C43.5922 28.7259 43.4828 28.8438 43.3862 28.948C43.2895 29.0523 43.1793 29.1684 43.1413 29.206L42.9658 29.3794C42.6558 29.6855 42.1431 30.1479 41.8395 30.395C41.3625 30.7835 41.2254 30.8905 40.8322 31.1819C38.8815 32.6272 36.2005 34.0935 33.7413 35.06C33.0286 35.3401 32.7461 35.4477 32.4903 35.5367C32.3435 35.5878 32.1488 35.6567 32.0576 35.6897C31.1362 36.0241 29.5072 36.4887 28.3562 36.7453C27.6604 36.9005 26.6767 37.0836 26.1959 37.1475C26.1357 37.1555 26.0048 37.1738 25.905 37.1882C25.6994 37.2179 24.6341 37.3379 24.3742 37.3607C24.2801 37.3689 24.1595 37.3795 24.1064 37.3843C23.987 37.395 23.5255 37.429 23.3726 37.4383C23.3104 37.4421 23.2123 37.4483 23.1544 37.4521C23.0965 37.4558 23.0112 37.4598 22.9649 37.4608C22.9185 37.4619 22.8085 37.465 22.7203 37.4676C22.313 37.4799 22.1509 37.4804 21.836 37.4705C21.1568 37.449 20.6699 37.3921 20.1779 37.2765C19.9782 37.2297 19.9622 37.2256 19.9263 37.2136C19.9098 37.208 19.8161 37.1783 19.7178 37.1475C19.1708 36.9758 18.5577 36.6121 18.1544 36.22C17.2432 35.3341 16.6212 34.1164 15.6996 31.4144C15.6294 31.2083 15.557 30.9979 15.5388 30.9466C15.145 29.8374 15.1621 29.3228 15.6016 29.0525C15.6331 29.0331 15.6553 29.0193 15.6742 29.0085C15.6869 29.0011 15.6981 28.9951 15.7096 28.9896C15.7424 28.9738 15.7772 28.962 15.8567 28.9348Z"/>
</mask>
<path d="M23.4539 9.6904C23.6787 9.65384 24.5304 9.55518 24.9966 9.51171C25.115 9.50066 25.2385 9.48883 25.271 9.48543C25.3034 9.48199 25.4038 9.47288 25.4939 9.4651L25.8957 9.42998L25.9038 9.42925C26.6103 9.36687 26.614 9.36653 26.8418 9.34944C26.889 9.34589 26.9357 9.34219 26.9743 9.33897C27.02 9.33516 27.0545 9.33201 27.0654 9.33059C27.1025 9.32573 27.2471 9.31423 27.5956 9.28832C27.6545 9.28395 27.736 9.27769 27.8166 9.27139L27.9992 9.25699C28.266 9.23544 28.8202 9.19364 29.5329 9.14133L30.4015 9.07734C30.4633 9.07278 30.632 9.061 30.7765 9.05112C31.0619 9.03161 31.1485 9.02548 31.4887 9.00064C31.6123 8.9916 31.7542 8.98209 31.8041 8.9795C31.8287 8.97825 31.8689 8.97574 31.9142 8.97273C31.9611 8.96962 32.0135 8.96595 32.0595 8.96254C32.1089 8.95885 32.1604 8.95519 32.2018 8.9524C32.2364 8.95009 32.2639 8.94836 32.2772 8.94769C32.3064 8.94631 32.4213 8.93867 32.5326 8.93065C32.621 8.92427 32.7224 8.91746 32.7853 8.91357L32.8256 8.91123C32.915 8.90641 33.3359 8.87848 33.9224 8.83852C34.0875 8.82726 34.2634 8.81589 34.3133 8.8133C34.3635 8.81066 34.4121 8.80783 34.5158 8.80118C34.5868 8.79666 34.6838 8.79032 34.8249 8.78104C34.8993 8.77616 34.9839 8.77084 35.013 8.76924C35.0421 8.76764 35.1284 8.76223 35.2049 8.75723C35.2813 8.75224 35.4033 8.74461 35.4758 8.74028L35.5838 8.73371L35.7882 8.72101C35.8875 8.71475 36.0095 8.70742 36.0594 8.70471C36.1092 8.70199 36.2109 8.69581 36.2853 8.69097C36.3597 8.68613 36.5002 8.67737 36.5976 8.67157C36.695 8.66572 36.8542 8.65596 36.9515 8.64981C37.0487 8.64366 37.1691 8.63648 37.219 8.63389C37.3021 8.62954 37.7129 8.60559 38.0257 8.58689C38.0961 8.58267 38.2839 8.57194 38.4429 8.56302C38.5301 8.55815 38.6368 8.55206 38.7344 8.54644L38.9406 8.53443C39.0554 8.52764 39.2988 8.51375 39.4815 8.50356C39.6641 8.49341 39.9766 8.47583 40.1758 8.46458C40.2717 8.45914 40.3703 8.45373 40.4533 8.44932C40.5427 8.44457 40.614 8.44097 40.6443 8.43973C40.7028 8.43735 41.0359 8.41938 41.3846 8.3998C41.7333 8.38023 42.0358 8.36387 42.0569 8.36342C42.0954 8.36259 43.2412 8.30593 43.4458 8.29475L43.6648 8.28278C43.7737 8.27685 44.2926 8.25193 44.6988 8.2332C47.5007 8.10371 48.3483 8.24661 48.3227 8.84426C48.2992 9.39265 47.3184 10.5051 45.1682 12.4221C45.1048 12.4786 45.0087 12.5647 44.9545 12.6135C44.9004 12.6622 44.7942 12.7567 44.7185 12.8235C44.6428 12.8902 44.5366 12.9847 44.4825 13.0335C44.4284 13.0823 44.3045 13.1913 44.2071 13.2757C44.1098 13.3602 44.0006 13.4558 43.9645 13.4881C43.8821 13.5619 43.6867 13.7328 43.4569 13.9319C43.4127 13.9702 43.3598 14.0162 43.3084 14.0609C43.2468 14.1146 43.1874 14.1665 43.1477 14.2012C43.0749 14.265 42.9876 14.3401 42.9536 14.368C42.9197 14.396 42.8449 14.4604 42.7875 14.5113C42.7556 14.5396 42.7103 14.5793 42.6651 14.6187C42.629 14.6501 42.593 14.6813 42.564 14.7064L42.0792 15.124C42.0091 15.1845 41.8869 15.2896 41.8076 15.3577C41.5578 15.5721 41.2478 15.8389 41.0899 15.9752C41.0276 16.0292 40.8589 16.1734 40.7153 16.2958C40.5716 16.4182 40.4043 16.5616 40.3436 16.6145C40.2829 16.6675 40.1682 16.7662 40.0887 16.834C39.9325 16.9674 39.7977 17.0828 39.5893 17.2618L39.0682 17.7097C38.9951 17.7727 38.8852 17.8669 38.8241 17.919C38.6426 18.0739 38.4662 18.2251 38.3248 18.3469C38.2516 18.4099 38.1418 18.5042 38.0808 18.5564L37.3368 19.1925C37.2175 19.2945 37.131 19.3682 36.8366 19.6185C36.757 19.6861 36.6572 19.7717 36.6146 19.8087C36.5721 19.8457 36.4207 19.9744 36.2782 20.0946C36.1984 20.1619 36.0894 20.2539 35.9834 20.3436L35.7546 20.5372C35.6091 20.6603 35.4448 20.7988 35.3894 20.8447C35.3339 20.8907 35.2232 20.983 35.1433 21.0498C35.0634 21.1166 34.9401 21.2193 34.8693 21.2781L34.6565 21.4545C34.6103 21.4928 34.4953 21.5872 34.401 21.6644C34.3067 21.7414 34.1499 21.8698 34.0526 21.9495C33.9553 22.0293 33.8373 22.1247 33.7904 22.1615C33.7435 22.1982 33.5237 22.3714 33.3021 22.5462C32.8424 22.9089 32.6904 23.0267 32.4965 23.1702C32.1925 23.3952 31.8899 23.614 31.7837 23.6853C31.722 23.7268 31.6482 23.7785 31.6199 23.8001C31.1233 24.1785 29.934 24.8467 29.3143 25.0954C28.0882 25.5875 26.9832 25.7951 24.6974 25.9626L24.4354 25.9819C24.2876 25.9929 23.8727 26.0211 23.5721 26.0405C23.4398 26.0491 23.2337 26.063 23.1141 26.0714C22.8962 26.0868 22.6719 26.1012 22.5727 26.1062C22.5436 26.1076 22.4287 26.1155 22.3175 26.1236C22.2063 26.1317 22.0914 26.1395 22.0623 26.141C22.0109 26.1436 21.9378 26.1482 21.5581 26.1725C21.4589 26.1789 21.3539 26.1854 21.3248 26.1869C21.2957 26.1885 21.2109 26.1936 21.1365 26.1984L20.4702 26.2392C20.2647 26.2518 19.7374 26.2817 19.6818 26.284C19.6609 26.2848 19.521 26.2913 19.371 26.2984C19.1359 26.3094 18.9167 26.3188 18.5586 26.3331C17.4135 26.3787 16.7549 26.3167 16.6809 26.1564C16.6216 26.0278 16.7137 25.9063 17.2682 25.3821C17.4017 25.256 17.7557 24.921 18.0551 24.6377C18.3544 24.3543 18.8081 23.9255 19.0632 23.6847L20.2819 22.5339C20.6972 22.1418 21.2967 21.576 21.6142 21.2766C22.4862 20.4542 23.2965 19.6828 23.5399 19.4432C23.5808 19.4029 23.6271 19.3578 23.6644 19.3218C23.6886 19.2984 23.709 19.2789 23.7218 19.2669C23.7545 19.2362 23.8406 19.151 23.9132 19.0776C23.9858 19.0041 24.0647 18.9259 24.0885 18.9038C24.1383 18.8578 24.4952 18.5018 24.5498 18.4437C24.5698 18.4224 24.6287 18.3613 24.6806 18.3077C25.3027 17.6674 25.674 17.2584 26.0152 16.8375C26.9999 15.623 26.9687 15.1346 25.9108 15.2022C25.6405 15.2195 25.3158 15.3623 24.9805 15.6115C24.938 15.6431 24.8529 15.7034 24.7915 15.7457C24.6052 15.8736 23.9085 16.419 23.6596 16.6317L23.5867 16.6938C23.5269 16.7446 23.4544 16.806 23.3981 16.8535C23.3153 16.9233 23.1878 17.0321 23.1147 17.0952L22.849 17.3248C22.776 17.388 22.6867 17.4664 22.6507 17.499C22.6146 17.5316 22.5158 17.6194 22.431 17.6941C22.3462 17.7687 22.2401 17.8633 22.1951 17.9044C22.1502 17.9454 22.0103 18.0726 21.8842 18.1869C21.5826 18.4604 21.552 18.4888 20.9084 19.0926C20.3161 19.6483 20.2198 19.7398 19.9071 20.0434C19.7954 20.1519 19.6771 20.2657 19.6444 20.2961C19.6116 20.3266 19.5298 20.406 19.4625 20.4725C19.3953 20.5391 19.261 20.6709 19.1641 20.7655C19.0672 20.8601 18.9285 20.9973 18.8558 21.0705C18.7831 21.1436 18.7113 21.2146 18.6963 21.2282C18.6813 21.2418 18.6214 21.3007 18.5632 21.3593C18.505 21.4178 18.3741 21.5492 18.2721 21.6512C18.1701 21.7533 18.0703 21.8541 18.0504 21.8754C18.0304 21.8966 17.9617 21.9669 17.8979 22.0315C17.834 22.0961 17.7463 22.1854 17.703 22.23C17.6597 22.2746 17.5792 22.357 17.5242 22.4131C17.4692 22.4692 17.396 22.5446 17.3616 22.5807L17.0949 22.8586C16.528 23.449 16.003 24.0117 15.5977 24.463L15.3369 24.7535C15.2579 24.8414 15.1537 24.9595 15.1182 25.0011L14.8245 25.3444C14.7234 25.4627 14.6311 25.5712 14.5787 25.6336C14.553 25.664 14.5369 25.6834 14.5338 25.6877C14.5244 25.7006 14.4149 25.8377 14.2904 25.9924C13.9564 26.4075 13.7517 26.6948 13.5338 27.0542C13.1846 27.6303 13.0304 28.9351 13.1534 30.2743C13.2308 31.1168 13.4902 32.0248 13.7833 32.4789C13.9541 32.7435 14.0537 32.8339 14.3087 32.9554C15.4239 33.487 16.0394 34.8071 15.6683 35.8714C15.4536 36.4872 15.4873 36.8135 15.8037 37.18C16.6611 38.1732 17.7014 40.7027 18.0947 42.7508C18.2795 43.7128 18.3483 44.9635 18.2563 45.688C18.0358 47.4255 17.1591 48.1195 14.9755 48.2851C12.6954 48.4581 12.3161 48.1656 12.6745 46.511C12.6982 46.4012 12.722 46.2912 12.7272 46.2664C12.7649 46.0902 12.9414 45.4269 13.0629 45.0055C13.4447 43.6812 13.6615 42.0151 13.5971 40.9016C13.5013 39.2455 13.0019 38.1254 12.0106 37.3435C10.8802 36.4519 10.3177 35.1045 10.7693 34.3703C10.8731 34.2015 10.8912 34.0834 10.8916 33.5707C10.8919 33.1334 10.8596 32.3457 10.8208 31.8421L10.8103 31.7032L10.8029 31.6026C10.7926 31.4613 10.7788 31.2945 10.7544 31.0172C10.7224 30.6548 10.7161 30.5859 10.7089 30.5195C10.7049 30.483 10.6861 30.2966 10.6671 30.1052C10.3582 26.9979 10.24 26.8446 8.29721 27.0311C8.10965 27.0491 7.8596 27.0735 7.74156 27.0853C7.34545 27.1249 7.13456 27.1386 6.71171 27.1521C5.30899 27.1968 4.37573 26.8561 4.38383 26.3024C4.38815 26.0062 4.46676 25.9075 5.3547 25.0834C5.49184 24.9561 5.63809 24.82 5.67968 24.781C5.69973 24.7621 5.74198 24.7232 5.79447 24.6749C5.85083 24.6232 5.91901 24.5607 5.98419 24.5013C6.11009 24.3865 6.26447 24.2454 6.32728 24.1877C6.39009 24.13 6.49345 24.0369 6.55698 23.9808C6.6205 23.9246 6.72394 23.8317 6.78683 23.7742C6.89985 23.6708 6.99718 23.5831 7.31729 23.2962C7.68879 22.9633 7.73531 22.9219 7.77275 22.8906C7.79427 22.8727 7.85605 22.8178 7.91003 22.7687C7.96403 22.7196 8.07751 22.6182 8.16219 22.5433C8.2121 22.4992 8.26949 22.4483 8.31747 22.4057L8.39836 22.3336C8.44355 22.2931 8.54255 22.2057 8.61838 22.1393C8.69421 22.0729 8.8005 21.9786 8.85459 21.9297C8.88174 21.9052 8.92203 21.8691 8.96503 21.831C9.0077 21.7931 9.05301 21.7531 9.09077 21.7201C9.1666 21.6537 9.26559 21.5662 9.31075 21.5256C9.35595 21.4851 9.45242 21.3997 9.52518 21.3359C9.59796 21.2722 9.80868 21.0871 9.99349 20.9246C10.1783 20.7622 10.3991 20.5686 10.4841 20.4946C10.5692 20.4205 10.6831 20.3201 10.7374 20.2715C10.8379 20.1814 10.96 20.0745 11.206 19.8609C11.282 19.7949 11.3811 19.7077 11.4262 19.6671C11.4714 19.6265 11.5806 19.5309 11.6689 19.4546C11.7572 19.3783 11.8765 19.2745 11.934 19.2239C11.963 19.1984 12.0032 19.1632 12.0446 19.1271C12.0853 19.0916 12.1271 19.0552 12.1604 19.0265C12.2273 18.9686 12.3292 18.8799 12.3869 18.8294C12.4835 18.7447 12.5857 18.6556 12.8782 18.4008C13.1267 18.1843 13.2164 18.1065 13.3536 17.9881C13.4327 17.9197 13.5447 17.8227 13.6024 17.7724L13.8399 17.5655C13.9128 17.502 14.0272 17.4026 14.0942 17.3448L14.3432 17.1293C14.4131 17.0686 14.5239 16.9727 14.5894 16.9162L14.8274 16.7105C14.8929 16.654 15.0037 16.5581 15.0736 16.4974C15.1436 16.4368 15.2544 16.341 15.32 16.2846L15.8047 15.867C15.8748 15.8066 15.9969 15.7014 16.0762 15.6333C16.2946 15.446 16.6086 15.1758 16.794 15.0159C16.8564 14.962 16.9827 14.8544 17.0746 14.7767C17.1265 14.7328 17.1825 14.685 17.2279 14.6459C17.263 14.6158 17.2917 14.5908 17.3075 14.5767C17.3437 14.5444 17.4586 14.4462 17.5629 14.3584C17.6672 14.2706 17.7821 14.1723 17.8183 14.14C17.8545 14.1076 17.9518 14.0242 18.0347 13.9545C18.1175 13.8849 18.2352 13.7851 18.2962 13.7328C18.3573 13.6805 18.4824 13.5741 18.5743 13.4964L18.7189 13.3736C18.765 13.3344 18.8057 13.2996 18.83 13.2787C18.8787 13.2367 18.9864 13.1454 19.0692 13.0757C19.128 13.0262 19.2043 12.9615 19.2656 12.9095L19.3307 12.8539C19.3918 12.8016 19.5096 12.7019 19.5924 12.6324C19.6753 12.5628 19.7858 12.47 19.8379 12.4261C20.3784 11.9707 20.849 11.5769 21.1504 11.3275C21.2305 11.2611 21.354 11.1588 21.4248 11.1C21.6284 10.931 21.9854 10.6405 22.2072 10.4633C22.3193 10.3739 22.4597 10.2614 22.5193 10.2135C22.5789 10.1655 22.7126 10.0628 22.8166 9.98523C22.9205 9.90769 23.0158 9.83629 23.0283 9.82663C23.1084 9.76495 23.2246 9.72775 23.4539 9.6904Z" fill="#5E25FF"/>
<path d="M15.8567 28.9348C16.1975 28.8181 16.7912 28.7197 17.4536 28.6701C17.5564 28.6623 17.6671 28.653 17.6995 28.6493C17.7318 28.6456 17.8396 28.6376 17.939 28.6315C18.0383 28.6253 18.1531 28.6173 18.1941 28.6138C18.235 28.6103 18.367 28.6018 18.4873 28.5949L18.9549 28.5681C19.3999 28.5424 19.926 28.5137 20.0348 28.509C20.0932 28.5065 20.3414 28.4931 20.5862 28.4793C21.3477 28.4363 22.1286 28.3936 22.2476 28.3885C22.3102 28.3858 22.3991 28.3821 22.4451 28.3803C22.4911 28.3785 22.661 28.3691 22.8226 28.3595C22.9842 28.3498 23.1475 28.3411 23.1854 28.3402C23.2552 28.3385 23.3714 28.3323 24.3038 28.2809C25.173 28.233 25.2256 28.2299 25.6308 28.2036C26.6035 28.1403 27.3984 28.0683 27.9866 27.9902L28.2492 27.9555C29.6865 27.7664 31.0503 27.2524 32.0104 26.5379C32.0557 26.5043 32.1293 26.4523 32.1739 26.4224C32.3528 26.3028 32.7339 26.0086 33.1086 25.7011C33.2383 25.5946 33.3751 25.4833 33.4125 25.4537C33.4499 25.424 33.5203 25.3651 33.5688 25.3226C33.5962 25.2986 33.6425 25.2589 33.6925 25.2164C33.731 25.1837 33.7717 25.1492 33.8078 25.119C33.8907 25.0495 34.0057 24.9515 34.0634 24.9012C34.1211 24.8509 34.2331 24.7538 34.3123 24.6855C34.3915 24.6172 34.5033 24.5198 34.5609 24.4692C34.6473 24.3931 34.7777 24.279 34.9189 24.1559L35.0464 24.0449C35.1102 23.9894 35.2121 23.9005 35.2728 23.8474L36.2111 23.0286C36.2719 22.9758 36.3812 22.8804 36.4541 22.8168C36.6517 22.6443 36.7911 22.5242 37.0802 22.2777C37.2238 22.1552 37.3911 22.012 37.452 21.9593C37.5129 21.9067 37.6278 21.8084 37.7073 21.7407C37.7868 21.6731 37.9019 21.5751 37.963 21.5229C38.024 21.4708 38.1418 21.3711 38.2246 21.3014C38.3074 21.2317 38.4076 21.1467 38.4472 21.1125C38.4689 21.0937 38.503 21.0648 38.539 21.0345C38.5684 21.0097 38.5992 20.9839 38.6255 20.9621C38.684 20.9136 38.7972 20.8191 38.8771 20.7522C38.9569 20.6853 39.0777 20.5847 39.1455 20.5285C39.2133 20.4724 39.3367 20.3699 39.4197 20.3006C39.5662 20.1784 39.7427 20.0328 39.9972 19.824C40.1028 19.7373 40.8835 19.1099 41.2397 18.8253C41.3436 18.7424 41.4701 18.6445 41.8274 18.3708C42.3903 17.9395 42.6667 17.7728 42.7411 17.8196C43.013 17.9909 43.8152 19.5789 44.4489 21.2006C44.494 21.316 44.5754 21.5223 44.6298 21.6591C44.9788 22.5368 45.363 23.7491 45.4483 24.2417C45.6213 25.2408 45.3358 26.2685 44.541 27.5076C44.3763 27.7643 43.8288 28.4721 43.6292 28.6862C43.5922 28.7259 43.4828 28.8438 43.3862 28.948C43.2895 29.0523 43.1793 29.1684 43.1413 29.206L42.9658 29.3794C42.6558 29.6855 42.1431 30.1479 41.8395 30.395C41.3625 30.7835 41.2254 30.8905 40.8322 31.1819C38.8815 32.6272 36.2005 34.0935 33.7413 35.06C33.0286 35.3401 32.7461 35.4477 32.4903 35.5367C32.3435 35.5878 32.1488 35.6567 32.0576 35.6897C31.1362 36.0241 29.5072 36.4887 28.3562 36.7453C27.6604 36.9005 26.6767 37.0836 26.1959 37.1475C26.1357 37.1555 26.0048 37.1738 25.905 37.1882C25.6994 37.2179 24.6341 37.3379 24.3742 37.3607C24.2801 37.3689 24.1595 37.3795 24.1064 37.3843C23.987 37.395 23.5255 37.429 23.3726 37.4383C23.3104 37.4421 23.2123 37.4483 23.1544 37.4521C23.0965 37.4558 23.0112 37.4598 22.9649 37.4608C22.9185 37.4619 22.8085 37.465 22.7203 37.4676C22.313 37.4799 22.1509 37.4804 21.836 37.4705C21.1568 37.449 20.6699 37.3921 20.1779 37.2765C19.9782 37.2297 19.9622 37.2256 19.9263 37.2136C19.9098 37.208 19.8161 37.1783 19.7178 37.1475C19.1708 36.9758 18.5577 36.6121 18.1544 36.22C17.2432 35.3341 16.6212 34.1164 15.6996 31.4144C15.6294 31.2083 15.557 30.9979 15.5388 30.9466C15.145 29.8374 15.1621 29.3228 15.6016 29.0525C15.6331 29.0331 15.6553 29.0193 15.6742 29.0085C15.6869 29.0011 15.6981 28.9951 15.7096 28.9896C15.7424 28.9738 15.7772 28.962 15.8567 28.9348Z" fill="#5E25FF"/>
<path d="M23.4539 9.6904C23.6787 9.65384 24.5304 9.55518 24.9966 9.51171C25.115 9.50066 25.2385 9.48883 25.271 9.48543C25.3034 9.48199 25.4038 9.47288 25.4939 9.4651L25.8957 9.42998L25.9038 9.42925C26.6103 9.36687 26.614 9.36653 26.8418 9.34944C26.889 9.34589 26.9357 9.34219 26.9743 9.33897C27.02 9.33516 27.0545 9.33201 27.0654 9.33059C27.1025 9.32573 27.2471 9.31423 27.5956 9.28832C27.6545 9.28395 27.736 9.27769 27.8166 9.27139L27.9992 9.25699C28.266 9.23544 28.8202 9.19364 29.5329 9.14133L30.4015 9.07734C30.4633 9.07278 30.632 9.061 30.7765 9.05112C31.0619 9.03161 31.1485 9.02548 31.4887 9.00064C31.6123 8.9916 31.7542 8.98209 31.8041 8.9795C31.8287 8.97825 31.8689 8.97574 31.9142 8.97273C31.9611 8.96962 32.0135 8.96595 32.0595 8.96254C32.1089 8.95885 32.1604 8.95519 32.2018 8.9524C32.2364 8.95009 32.2639 8.94836 32.2772 8.94769C32.3064 8.94631 32.4213 8.93867 32.5326 8.93065C32.621 8.92427 32.7224 8.91746 32.7853 8.91357L32.8256 8.91123C32.915 8.90641 33.3359 8.87848 33.9224 8.83852C34.0875 8.82726 34.2634 8.81589 34.3133 8.8133C34.3635 8.81066 34.4121 8.80783 34.5158 8.80118C34.5868 8.79666 34.6838 8.79032 34.8249 8.78104C34.8993 8.77616 34.9839 8.77084 35.013 8.76924C35.0421 8.76764 35.1284 8.76223 35.2049 8.75723C35.2813 8.75224 35.4033 8.74461 35.4758 8.74028L35.5838 8.73371L35.7882 8.72101C35.8875 8.71475 36.0095 8.70742 36.0594 8.70471C36.1092 8.70199 36.2109 8.69581 36.2853 8.69097C36.3597 8.68613 36.5002 8.67737 36.5976 8.67157C36.695 8.66572 36.8542 8.65596 36.9515 8.64981C37.0487 8.64366 37.1691 8.63648 37.219 8.63389C37.3021 8.62954 37.7129 8.60559 38.0257 8.58689C38.0961 8.58267 38.2839 8.57194 38.4429 8.56302C38.5301 8.55815 38.6368 8.55206 38.7344 8.54644L38.9406 8.53443C39.0554 8.52764 39.2988 8.51375 39.4815 8.50356C39.6641 8.49341 39.9766 8.47583 40.1758 8.46458C40.2717 8.45914 40.3703 8.45373 40.4533 8.44932C40.5427 8.44457 40.614 8.44097 40.6443 8.43973C40.7028 8.43735 41.0359 8.41938 41.3846 8.3998C41.7333 8.38023 42.0358 8.36387 42.0569 8.36342C42.0954 8.36259 43.2412 8.30593 43.4458 8.29475L43.6648 8.28278C43.7737 8.27685 44.2926 8.25193 44.6988 8.2332C47.5007 8.10371 48.3483 8.24661 48.3227 8.84426C48.2992 9.39265 47.3184 10.5051 45.1682 12.4221C45.1048 12.4786 45.0087 12.5647 44.9545 12.6135C44.9004 12.6622 44.7942 12.7567 44.7185 12.8235C44.6428 12.8902 44.5366 12.9847 44.4825 13.0335C44.4284 13.0823 44.3045 13.1913 44.2071 13.2757C44.1098 13.3602 44.0006 13.4558 43.9645 13.4881C43.8821 13.5619 43.6867 13.7328 43.4569 13.9319C43.4127 13.9702 43.3598 14.0162 43.3084 14.0609C43.2468 14.1146 43.1874 14.1665 43.1477 14.2012C43.0749 14.265 42.9876 14.3401 42.9536 14.368C42.9197 14.396 42.8449 14.4604 42.7875 14.5113C42.7556 14.5396 42.7103 14.5793 42.6651 14.6187C42.629 14.6501 42.593 14.6813 42.564 14.7064L42.0792 15.124C42.0091 15.1845 41.8869 15.2896 41.8076 15.3577C41.5578 15.5721 41.2478 15.8389 41.0899 15.9752C41.0276 16.0292 40.8589 16.1734 40.7153 16.2958C40.5716 16.4182 40.4043 16.5616 40.3436 16.6145C40.2829 16.6675 40.1682 16.7662 40.0887 16.834C39.9325 16.9674 39.7977 17.0828 39.5893 17.2618L39.0682 17.7097C38.9951 17.7727 38.8852 17.8669 38.8241 17.919C38.6426 18.0739 38.4662 18.2251 38.3248 18.3469C38.2516 18.4099 38.1418 18.5042 38.0808 18.5564L37.3368 19.1925C37.2175 19.2945 37.131 19.3682 36.8366 19.6185C36.757 19.6861 36.6572 19.7717 36.6146 19.8087C36.5721 19.8457 36.4207 19.9744 36.2782 20.0946C36.1984 20.1619 36.0894 20.2539 35.9834 20.3436L35.7546 20.5372C35.6091 20.6603 35.4448 20.7988 35.3894 20.8447C35.3339 20.8907 35.2232 20.983 35.1433 21.0498C35.0634 21.1166 34.9401 21.2193 34.8693 21.2781L34.6565 21.4545C34.6103 21.4928 34.4953 21.5872 34.401 21.6644C34.3067 21.7414 34.1499 21.8698 34.0526 21.9495C33.9553 22.0293 33.8373 22.1247 33.7904 22.1615C33.7435 22.1982 33.5237 22.3714 33.3021 22.5462C32.8424 22.9089 32.6904 23.0267 32.4965 23.1702C32.1925 23.3952 31.8899 23.614 31.7837 23.6853C31.722 23.7268 31.6482 23.7785 31.6199 23.8001C31.1233 24.1785 29.934 24.8467 29.3143 25.0954C28.0882 25.5875 26.9832 25.7951 24.6974 25.9626L24.4354 25.9819C24.2876 25.9929 23.8727 26.0211 23.5721 26.0405C23.4398 26.0491 23.2337 26.063 23.1141 26.0714C22.8962 26.0868 22.6719 26.1012 22.5727 26.1062C22.5436 26.1076 22.4287 26.1155 22.3175 26.1236C22.2063 26.1317 22.0914 26.1395 22.0623 26.141C22.0109 26.1436 21.9378 26.1482 21.5581 26.1725C21.4589 26.1789 21.3539 26.1854 21.3248 26.1869C21.2957 26.1885 21.2109 26.1936 21.1365 26.1984L20.4702 26.2392C20.2647 26.2518 19.7374 26.2817 19.6818 26.284C19.6609 26.2848 19.521 26.2913 19.371 26.2984C19.1359 26.3094 18.9167 26.3188 18.5586 26.3331C17.4135 26.3787 16.7549 26.3167 16.6809 26.1564C16.6216 26.0278 16.7137 25.9063 17.2682 25.3821C17.4017 25.256 17.7557 24.921 18.0551 24.6377C18.3544 24.3543 18.8081 23.9255 19.0632 23.6847L20.2819 22.5339C20.6972 22.1418 21.2967 21.576 21.6142 21.2766C22.4862 20.4542 23.2965 19.6828 23.5399 19.4432C23.5808 19.4029 23.6271 19.3578 23.6644 19.3218C23.6886 19.2984 23.709 19.2789 23.7218 19.2669C23.7545 19.2362 23.8406 19.151 23.9132 19.0776C23.9858 19.0041 24.0647 18.9259 24.0885 18.9038C24.1383 18.8578 24.4952 18.5018 24.5498 18.4437C24.5698 18.4224 24.6287 18.3613 24.6806 18.3077C25.3027 17.6674 25.674 17.2584 26.0152 16.8375C26.9999 15.623 26.9687 15.1346 25.9108 15.2022C25.6405 15.2195 25.3158 15.3623 24.9805 15.6115C24.938 15.6431 24.8529 15.7034 24.7915 15.7457C24.6052 15.8736 23.9085 16.419 23.6596 16.6317L23.5867 16.6938C23.5269 16.7446 23.4544 16.806 23.3981 16.8535C23.3153 16.9233 23.1878 17.0321 23.1147 17.0952L22.849 17.3248C22.776 17.388 22.6867 17.4664 22.6507 17.499C22.6146 17.5316 22.5158 17.6194 22.431 17.6941C22.3462 17.7687 22.2401 17.8633 22.1951 17.9044C22.1502 17.9454 22.0103 18.0726 21.8842 18.1869C21.5826 18.4604 21.552 18.4888 20.9084 19.0926C20.3161 19.6483 20.2198 19.7398 19.9071 20.0434C19.7954 20.1519 19.6771 20.2657 19.6444 20.2961C19.6116 20.3266 19.5298 20.406 19.4625 20.4725C19.3953 20.5391 19.261 20.6709 19.1641 20.7655C19.0672 20.8601 18.9285 20.9973 18.8558 21.0705C18.7831 21.1436 18.7113 21.2146 18.6963 21.2282C18.6813 21.2418 18.6214 21.3007 18.5632 21.3593C18.505 21.4178 18.3741 21.5492 18.2721 21.6512C18.1701 21.7533 18.0703 21.8541 18.0504 21.8754C18.0304 21.8966 17.9617 21.9669 17.8979 22.0315C17.834 22.0961 17.7463 22.1854 17.703 22.23C17.6597 22.2746 17.5792 22.357 17.5242 22.4131C17.4692 22.4692 17.396 22.5446 17.3616 22.5807L17.0949 22.8586C16.528 23.449 16.003 24.0117 15.5977 24.463L15.3369 24.7535C15.2579 24.8414 15.1537 24.9595 15.1182 25.0011L14.8245 25.3444C14.7234 25.4627 14.6311 25.5712 14.5787 25.6336C14.553 25.664 14.5369 25.6834 14.5338 25.6877C14.5244 25.7006 14.4149 25.8377 14.2904 25.9924C13.9564 26.4075 13.7517 26.6948 13.5338 27.0542C13.1846 27.6303 13.0304 28.9351 13.1534 30.2743C13.2308 31.1168 13.4902 32.0248 13.7833 32.4789C13.9541 32.7435 14.0537 32.8339 14.3087 32.9554C15.4239 33.487 16.0394 34.8071 15.6683 35.8714C15.4536 36.4872 15.4873 36.8135 15.8037 37.18C16.6611 38.1732 17.7014 40.7027 18.0947 42.7508C18.2795 43.7128 18.3483 44.9635 18.2563 45.688C18.0358 47.4255 17.1591 48.1195 14.9755 48.2851C12.6954 48.4581 12.3161 48.1656 12.6745 46.511C12.6982 46.4012 12.722 46.2912 12.7272 46.2664C12.7649 46.0902 12.9414 45.4269 13.0629 45.0055C13.4447 43.6812 13.6615 42.0151 13.5971 40.9016C13.5013 39.2455 13.0019 38.1254 12.0106 37.3435C10.8802 36.4519 10.3177 35.1045 10.7693 34.3703C10.8731 34.2015 10.8912 34.0834 10.8916 33.5707C10.8919 33.1334 10.8596 32.3457 10.8208 31.8421L10.8103 31.7032L10.8029 31.6026C10.7926 31.4613 10.7788 31.2945 10.7544 31.0172C10.7224 30.6548 10.7161 30.5859 10.7089 30.5195C10.7049 30.483 10.6861 30.2966 10.6671 30.1052C10.3582 26.9979 10.24 26.8446 8.29721 27.0311C8.10965 27.0491 7.8596 27.0735 7.74156 27.0853C7.34545 27.1249 7.13456 27.1386 6.71171 27.1521C5.30899 27.1968 4.37573 26.8561 4.38383 26.3024C4.38815 26.0062 4.46676 25.9075 5.3547 25.0834C5.49184 24.9561 5.63809 24.82 5.67968 24.781C5.69973 24.7621 5.74198 24.7232 5.79447 24.6749C5.85083 24.6232 5.91901 24.5607 5.98419 24.5013C6.11009 24.3865 6.26447 24.2454 6.32728 24.1877C6.39009 24.13 6.49345 24.0369 6.55698 23.9808C6.6205 23.9246 6.72394 23.8317 6.78683 23.7742C6.89985 23.6708 6.99718 23.5831 7.31729 23.2962C7.68879 22.9633 7.73531 22.9219 7.77275 22.8906C7.79427 22.8727 7.85605 22.8178 7.91003 22.7687C7.96403 22.7196 8.07751 22.6182 8.16219 22.5433C8.2121 22.4992 8.26949 22.4483 8.31747 22.4057L8.39836 22.3336C8.44355 22.2931 8.54255 22.2057 8.61838 22.1393C8.69421 22.0729 8.8005 21.9786 8.85459 21.9297C8.88174 21.9052 8.92203 21.8691 8.96503 21.831C9.0077 21.7931 9.05301 21.7531 9.09077 21.7201C9.1666 21.6537 9.26559 21.5662 9.31075 21.5256C9.35595 21.4851 9.45242 21.3997 9.52518 21.3359C9.59796 21.2722 9.80868 21.0871 9.99349 20.9246C10.1783 20.7622 10.3991 20.5686 10.4841 20.4946C10.5692 20.4205 10.6831 20.3201 10.7374 20.2715C10.8379 20.1814 10.96 20.0745 11.206 19.8609C11.282 19.7949 11.3811 19.7077 11.4262 19.6671C11.4714 19.6265 11.5806 19.5309 11.6689 19.4546C11.7572 19.3783 11.8765 19.2745 11.934 19.2239C11.963 19.1984 12.0032 19.1632 12.0446 19.1271C12.0853 19.0916 12.1271 19.0552 12.1604 19.0265C12.2273 18.9686 12.3292 18.8799 12.3869 18.8294C12.4835 18.7447 12.5857 18.6556 12.8782 18.4008C13.1267 18.1843 13.2164 18.1065 13.3536 17.9881C13.4327 17.9197 13.5447 17.8227 13.6024 17.7724L13.8399 17.5655C13.9128 17.502 14.0272 17.4026 14.0942 17.3448L14.3432 17.1293C14.4131 17.0686 14.5239 16.9727 14.5894 16.9162L14.8274 16.7105C14.8929 16.654 15.0037 16.5581 15.0736 16.4974C15.1436 16.4368 15.2544 16.341 15.32 16.2846L15.8047 15.867C15.8748 15.8066 15.9969 15.7014 16.0762 15.6333C16.2946 15.446 16.6086 15.1758 16.794 15.0159C16.8564 14.962 16.9827 14.8544 17.0746 14.7767C17.1265 14.7328 17.1825 14.685 17.2279 14.6459C17.263 14.6158 17.2917 14.5908 17.3075 14.5767C17.3437 14.5444 17.4586 14.4462 17.5629 14.3584C17.6672 14.2706 17.7821 14.1723 17.8183 14.14C17.8545 14.1076 17.9518 14.0242 18.0347 13.9545C18.1175 13.8849 18.2352 13.7851 18.2962 13.7328C18.3573 13.6805 18.4824 13.5741 18.5743 13.4964L18.7189 13.3736C18.765 13.3344 18.8057 13.2996 18.83 13.2787C18.8787 13.2367 18.9864 13.1454 19.0692 13.0757C19.128 13.0262 19.2043 12.9615 19.2656 12.9095L19.3307 12.8539C19.3918 12.8016 19.5096 12.7019 19.5924 12.6324C19.6753 12.5628 19.7858 12.47 19.8379 12.4261C20.3784 11.9707 20.849 11.5769 21.1504 11.3275C21.2305 11.2611 21.354 11.1588 21.4248 11.1C21.6284 10.931 21.9854 10.6405 22.2072 10.4633C22.3193 10.3739 22.4597 10.2614 22.5193 10.2135C22.5789 10.1655 22.7126 10.0628 22.8166 9.98523C22.9205 9.90769 23.0158 9.83629 23.0283 9.82663C23.1084 9.76495 23.2246 9.72775 23.4539 9.6904Z" stroke="white" stroke-width="3.45173" mask="url(#path-5-outside-1_386_5865)"/>
<path d="M15.8567 28.9348C16.1975 28.8181 16.7912 28.7197 17.4536 28.6701C17.5564 28.6623 17.6671 28.653 17.6995 28.6493C17.7318 28.6456 17.8396 28.6376 17.939 28.6315C18.0383 28.6253 18.1531 28.6173 18.1941 28.6138C18.235 28.6103 18.367 28.6018 18.4873 28.5949L18.9549 28.5681C19.3999 28.5424 19.926 28.5137 20.0348 28.509C20.0932 28.5065 20.3414 28.4931 20.5862 28.4793C21.3477 28.4363 22.1286 28.3936 22.2476 28.3885C22.3102 28.3858 22.3991 28.3821 22.4451 28.3803C22.4911 28.3785 22.661 28.3691 22.8226 28.3595C22.9842 28.3498 23.1475 28.3411 23.1854 28.3402C23.2552 28.3385 23.3714 28.3323 24.3038 28.2809C25.173 28.233 25.2256 28.2299 25.6308 28.2036C26.6035 28.1403 27.3984 28.0683 27.9866 27.9902L28.2492 27.9555C29.6865 27.7664 31.0503 27.2524 32.0104 26.5379C32.0557 26.5043 32.1293 26.4523 32.1739 26.4224C32.3528 26.3028 32.7339 26.0086 33.1086 25.7011C33.2383 25.5946 33.3751 25.4833 33.4125 25.4537C33.4499 25.424 33.5203 25.3651 33.5688 25.3226C33.5962 25.2986 33.6425 25.2589 33.6925 25.2164C33.731 25.1837 33.7717 25.1492 33.8078 25.119C33.8907 25.0495 34.0057 24.9515 34.0634 24.9012C34.1211 24.8509 34.2331 24.7538 34.3123 24.6855C34.3915 24.6172 34.5033 24.5198 34.5609 24.4692C34.6473 24.3931 34.7777 24.279 34.9189 24.1559L35.0464 24.0449C35.1102 23.9894 35.2121 23.9005 35.2728 23.8474L36.2111 23.0286C36.2719 22.9758 36.3812 22.8804 36.4541 22.8168C36.6517 22.6443 36.7911 22.5242 37.0802 22.2777C37.2238 22.1552 37.3911 22.012 37.452 21.9593C37.5129 21.9067 37.6278 21.8084 37.7073 21.7407C37.7868 21.6731 37.9019 21.5751 37.963 21.5229C38.024 21.4708 38.1418 21.3711 38.2246 21.3014C38.3074 21.2317 38.4076 21.1467 38.4472 21.1125C38.4689 21.0937 38.503 21.0648 38.539 21.0345C38.5684 21.0097 38.5992 20.9839 38.6255 20.9621C38.684 20.9136 38.7972 20.8191 38.8771 20.7522C38.9569 20.6853 39.0777 20.5847 39.1455 20.5285C39.2133 20.4724 39.3367 20.3699 39.4197 20.3006C39.5662 20.1784 39.7427 20.0328 39.9972 19.824C40.1028 19.7373 40.8835 19.1099 41.2397 18.8253C41.3436 18.7424 41.4701 18.6445 41.8274 18.3708C42.3903 17.9395 42.6667 17.7728 42.7411 17.8196C43.013 17.9909 43.8152 19.5789 44.4489 21.2006C44.494 21.316 44.5754 21.5223 44.6298 21.6591C44.9788 22.5368 45.363 23.7491 45.4483 24.2417C45.6213 25.2408 45.3358 26.2685 44.541 27.5076C44.3763 27.7643 43.8288 28.4721 43.6292 28.6862C43.5922 28.7259 43.4828 28.8438 43.3862 28.948C43.2895 29.0523 43.1793 29.1684 43.1413 29.206L42.9658 29.3794C42.6558 29.6855 42.1431 30.1479 41.8395 30.395C41.3625 30.7835 41.2254 30.8905 40.8322 31.1819C38.8815 32.6272 36.2005 34.0935 33.7413 35.06C33.0286 35.3401 32.7461 35.4477 32.4903 35.5367C32.3435 35.5878 32.1488 35.6567 32.0576 35.6897C31.1362 36.0241 29.5072 36.4887 28.3562 36.7453C27.6604 36.9005 26.6767 37.0836 26.1959 37.1475C26.1357 37.1555 26.0048 37.1738 25.905 37.1882C25.6994 37.2179 24.6341 37.3379 24.3742 37.3607C24.2801 37.3689 24.1595 37.3795 24.1064 37.3843C23.987 37.395 23.5255 37.429 23.3726 37.4383C23.3104 37.4421 23.2123 37.4483 23.1544 37.4521C23.0965 37.4558 23.0112 37.4598 22.9649 37.4608C22.9185 37.4619 22.8085 37.465 22.7203 37.4676C22.313 37.4799 22.1509 37.4804 21.836 37.4705C21.1568 37.449 20.6699 37.3921 20.1779 37.2765C19.9782 37.2297 19.9622 37.2256 19.9263 37.2136C19.9098 37.208 19.8161 37.1783 19.7178 37.1475C19.1708 36.9758 18.5577 36.6121 18.1544 36.22C17.2432 35.3341 16.6212 34.1164 15.6996 31.4144C15.6294 31.2083 15.557 30.9979 15.5388 30.9466C15.145 29.8374 15.1621 29.3228 15.6016 29.0525C15.6331 29.0331 15.6553 29.0193 15.6742 29.0085C15.6869 29.0011 15.6981 28.9951 15.7096 28.9896C15.7424 28.9738 15.7772 28.962 15.8567 28.9348Z" stroke="white" stroke-width="3.45173" mask="url(#path-5-outside-1_386_5865)"/>
</svg>
