<svg width="38" height="38" viewBox="0 0 38 38" fill="none" xmlns="http://www.w3.org/2000/svg">
<path d="M5.6429 15.9866C4.53297 15.3545 4.3744 13.7743 5.6429 13.1422C5.6429 13.1422 9.60694 9.34981 16.108 7.29558C24.5117 4.45126 31.3299 4.76729 31.3299 4.76729C32.4398 4.60927 33.3912 5.55738 33.2326 6.66351C33.2326 6.66351 33.5498 13.4583 30.6957 21.9912C27.8415 30.5242 24.8289 32.4204 24.8289 32.4204C24.1946 33.5265 22.609 33.5265 21.9748 32.4204C19.1206 29.102 17.6936 24.8356 17.6936 20.4111C13.2539 20.253 8.9727 18.8309 5.6429 15.9866Z" stroke="#1C2028" stroke-width="2.5" stroke-linecap="round" stroke-linejoin="round"/>
<path d="M17.4167 20.5835L31.6667 6.3335" stroke="#1C2028" stroke-width="2.5" stroke-linecap="round" stroke-linejoin="round"/>
</svg>
