<svg width="38" height="38" viewBox="0 0 38 38" fill="none" xmlns="http://www.w3.org/2000/svg">
<path d="M28.5 28.3681C28.5 30.386 23.75 31.6667 19 31.6667C13.4583 31.6667 9.5 30.386 9.5 28.3681C9.5 25.4247 14.25 23.75 19 23.75C23.75 23.75 28.5 25.7292 28.5 28.3681Z" stroke="#1C2028" stroke-width="2.375" stroke-linecap="round" stroke-linejoin="round"/>
<path d="M19 18.9999C22.4978 18.9999 25.3333 16.1644 25.3333 12.6666C25.3333 9.16878 22.4978 6.33325 19 6.33325C15.5022 6.33325 12.6667 9.16878 12.6667 12.6666C12.6667 16.1644 15.5022 18.9999 19 18.9999Z" stroke="#1C2028" stroke-width="2.375" stroke-linecap="round" stroke-linejoin="round"/>
<path d="M32.4583 27.4453C34.1128 26.9762 34.8333 26.1992 34.8333 25.2077C34.8333 23.2918 32.08 21.7949 28.5 21.45" stroke="#1C2028" stroke-width="2.375" stroke-linecap="round" stroke-linejoin="round"/>
<path d="M28.5 17.4167C30.6861 17.4167 32.4583 15.6445 32.4583 13.4583C32.4583 11.2722 30.6861 9.5 28.5 9.5" stroke="#1C2028" stroke-width="2.375" stroke-linecap="round" stroke-linejoin="round"/>
<path d="M5.54167 27.4453C3.88724 26.9762 3.16667 26.1992 3.16667 25.2077C3.16667 23.2918 5.92003 21.7949 9.5 21.45" stroke="#1C2028" stroke-width="2.375" stroke-linecap="round" stroke-linejoin="round"/>
<path d="M9.5 17.4167C7.31387 17.4167 5.54167 15.6445 5.54167 13.4583C5.54167 11.2722 7.31387 9.5 9.5 9.5" stroke="#1C2028" stroke-width="2.375" stroke-linecap="round" stroke-linejoin="round"/>
</svg>
